<?xml version="1.0" encoding="UTF-8"?>
<svg xmlns="http://www.w3.org/2000/svg" xmlns:xlink="http://www.w3.org/1999/xlink" width="64px" height="64px" viewBox="0 0 64 64" version="1.1">
<defs>
<linearGradient id="linear0" gradientUnits="userSpaceOnUse" x1="35.832" y1="8.25" x2="35.832" y2="56.26" spreadMethod="reflect">
<stop offset="0" style="stop-color:rgb(10.196078%,42.745098%,100%);stop-opacity:1;"/>
<stop offset="1" style="stop-color:rgb(78.431373%,13.333333%,100%);stop-opacity:1;"/>
</linearGradient>
<linearGradient id="linear1" gradientUnits="userSpaceOnUse" x1="30.875" y1="8.939" x2="30.875" y2="53.888" spreadMethod="reflect">
<stop offset="0" style="stop-color:rgb(10.196078%,42.745098%,100%);stop-opacity:1;"/>
<stop offset="1" style="stop-color:rgb(78.431373%,13.333333%,100%);stop-opacity:1;"/>
</linearGradient>
<linearGradient id="linear2" gradientUnits="userSpaceOnUse" x1="30.875" y1="9.274" x2="30.875" y2="54.224" spreadMethod="reflect">
<stop offset="0" style="stop-color:rgb(10.196078%,42.745098%,100%);stop-opacity:1;"/>
<stop offset="1" style="stop-color:rgb(78.431373%,13.333333%,100%);stop-opacity:1;"/>
</linearGradient>
<linearGradient id="linear3" gradientUnits="userSpaceOnUse" x1="47" y1="18.063" x2="47" y2="21.875" spreadMethod="reflect">
<stop offset="0" style="stop-color:rgb(42.745098%,78.039216%,100%);stop-opacity:1;"/>
<stop offset="1" style="stop-color:rgb(90.196078%,67.058824%,100%);stop-opacity:1;"/>
</linearGradient>
<linearGradient id="linear4" gradientUnits="userSpaceOnUse" x1="43" y1="44.063" x2="43" y2="47.875" spreadMethod="reflect">
<stop offset="0" style="stop-color:rgb(42.745098%,78.039216%,100%);stop-opacity:1;"/>
<stop offset="1" style="stop-color:rgb(90.196078%,67.058824%,100%);stop-opacity:1;"/>
</linearGradient>
<linearGradient id="linear5" gradientUnits="userSpaceOnUse" x1="47" y1="8.417" x2="47" y2="57.787" spreadMethod="reflect">
<stop offset="0" style="stop-color:rgb(10.196078%,42.745098%,100%);stop-opacity:1;"/>
<stop offset="1" style="stop-color:rgb(78.431373%,13.333333%,100%);stop-opacity:1;"/>
</linearGradient>
<linearGradient id="linear6" gradientUnits="userSpaceOnUse" x1="32" y1="8.417" x2="32" y2="57.787" spreadMethod="reflect">
<stop offset="0" style="stop-color:rgb(10.196078%,42.745098%,100%);stop-opacity:1;"/>
<stop offset="1" style="stop-color:rgb(78.431373%,13.333333%,100%);stop-opacity:1;"/>
</linearGradient>
<linearGradient id="linear7" gradientUnits="userSpaceOnUse" x1="43" y1="8.417" x2="43" y2="57.787" spreadMethod="reflect">
<stop offset="0" style="stop-color:rgb(10.196078%,42.745098%,100%);stop-opacity:1;"/>
<stop offset="1" style="stop-color:rgb(78.431373%,13.333333%,100%);stop-opacity:1;"/>
</linearGradient>
<linearGradient id="linear8" gradientUnits="userSpaceOnUse" x1="43" y1="8.417" x2="43" y2="57.787" spreadMethod="reflect">
<stop offset="0" style="stop-color:rgb(10.196078%,42.745098%,100%);stop-opacity:1;"/>
<stop offset="1" style="stop-color:rgb(78.431373%,13.333333%,100%);stop-opacity:1;"/>
</linearGradient>
<linearGradient id="linear9" gradientUnits="userSpaceOnUse" x1="21" y1="8.417" x2="21" y2="57.787" spreadMethod="reflect">
<stop offset="0" style="stop-color:rgb(10.196078%,42.745098%,100%);stop-opacity:1;"/>
<stop offset="1" style="stop-color:rgb(78.431373%,13.333333%,100%);stop-opacity:1;"/>
</linearGradient>
</defs>
<g id="surface307803">
<path style=" stroke:none;fill-rule:nonzero;fill:url(#linear0);" d="M 34.863281 19.835938 C 35.453125 19.757812 36.4375 19.078125 36.785156 18.640625 C 36.664062 19.179688 36.65625 20.746094 36.800781 21.285156 C 36.402344 20.667969 35.464844 19.910156 34.863281 19.835938 "/>
<path style=" stroke:none;fill-rule:nonzero;fill:url(#linear1);" d="M 31.46875 15 C 32.183594 15 32.75 15.703125 32.75 16.5 C 32.75 17.296875 32.1875 18 31.46875 18 L 29 18 L 29 15 Z M 31.46875 15 "/>
<path style=" stroke:none;fill-rule:nonzero;fill:url(#linear2);" d="M 31.464844 22 C 32.1875 22 32.75 22.699219 32.75 23.503906 C 32.75 24.300781 32.1875 25 31.464844 25 L 29 25 L 29 22 Z M 31.464844 22 "/>
<path style=" stroke:none;fill-rule:nonzero;fill:url(#linear3);" d="M 47 22 C 48.105469 22 49 21.105469 49 20 C 49 18.894531 48.105469 18 47 18 C 45.894531 18 45 18.894531 45 20 C 45 21.105469 45.894531 22 47 22 "/>
<path style=" stroke:none;fill-rule:nonzero;fill:url(#linear4);" d="M 43 48 C 44.105469 48 45 47.105469 45 46 C 45 44.894531 44.105469 44 43 44 C 41.894531 44 41 44.894531 41 46 C 41 47.105469 41.894531 48 43 48 "/>
<path style=" stroke:none;fill-rule:nonzero;fill:url(#linear5);" d="M 47.003906 26 C 43.691406 26 41 23.308594 41 20 C 41 16.691406 43.691406 14 47.003906 14 C 50.308594 14 53 16.691406 53 20 C 53 23.308594 50.308594 26 47.003906 26 Z M 47.003906 16 C 44.796875 16 43 17.796875 43 20 C 43 22.207031 44.796875 24 47.003906 24 C 49.207031 24 51 22.207031 51 20 C 51 17.796875 49.207031 16 47.003906 16 Z M 47.003906 16 "/>
<path style=" stroke:none;fill-rule:nonzero;fill:url(#linear6);" d="M 47 8 C 43.671875 8 40.589844 9.398438 38.378906 11.679688 C 38.199219 11.351562 38 11.011719 37.789062 10.710938 C 36.589844 9.039062 34.480469 8 32.628906 8 L 5 8 L 5 32 L 32.121094 32 C 34.761719 32 36.921875 30.339844 38.289062 28.539062 C 38.328125 28.480469 38.359375 28.429688 38.390625 28.371094 C 40.578125 30.628906 43.648438 32 47 32 C 53.621094 32 59 26.621094 59 20 C 59 13.378906 53.621094 8 47 8 Z M 22 11 L 22 30 L 16 30 L 16 22 L 13 22 L 13 30 L 7 30 L 7 10 L 13 10 L 13 17 L 16 17 L 16 10 L 22 10 Z M 47 30 C 43.859375 30 41.03125 28.558594 39.191406 26.261719 L 39.191406 26.25 C 38.628906 25.558594 38.160156 24.789062 37.808594 23.949219 L 37.800781 23.949219 C 37.800781 24.800781 37.625 25.953125 37.125 26.875 C 36.195312 28.625 34.390625 30 32.25 30 L 24 30 L 24 10 L 32.5 10 C 35 10 36.175781 11.398438 37.125 13.25 C 37.585938 14.128906 37.75 15.21875 37.800781 16.089844 C 38.179688 15.199219 38.691406 14.371094 39.300781 13.640625 C 41.148438 11.410156 43.949219 10 47 10 C 52.511719 10 57 14.488281 57 20 C 57 25.511719 52.511719 30 47 30 Z M 47 30 "/>
<path style=" stroke:none;fill-rule:nonzero;fill:url(#linear7);" d="M 43 58 C 36.382812 58 31 52.617188 31 46 C 31 39.382812 36.382812 34 43 34 C 49.617188 34 55 39.382812 55 46 C 55 52.617188 49.617188 58 43 58 Z M 43 36 C 37.484375 36 33 40.484375 33 46 C 33 51.515625 37.484375 56 43 56 C 48.515625 56 53 51.515625 53 46 C 53 40.484375 48.515625 36 43 36 Z M 43 36 "/>
<path style=" stroke:none;fill-rule:nonzero;fill:url(#linear8);" d="M 43.003906 52 C 39.691406 52 37 49.308594 37 46 C 37 42.691406 39.691406 40 43.003906 40 C 46.308594 40 49 42.691406 49 46 C 49 49.308594 46.308594 52 43.003906 52 Z M 43.003906 42 C 40.796875 42 39 43.796875 39 46 C 39 48.207031 40.796875 50 43.003906 50 C 45.207031 50 47 48.207031 47 46 C 47 43.796875 45.207031 42 43.003906 42 Z M 43.003906 42 "/>
<path style=" stroke:none;fill-rule:nonzero;fill:url(#linear9);" d="M 21 34 C 14.382812 34 9 39.382812 9 46 C 9 52.617188 14.382812 58 21 58 C 27.617188 58 33 52.617188 33 46 C 33 39.382812 27.617188 34 21 34 Z M 21 56 C 15.484375 56 11 51.515625 11 46 C 11 40.484375 15.484375 36 21 36 C 25.46875 36 29.261719 38.945312 30.539062 43 L 25.324219 43 C 24.464844 41.207031 22.851562 40 21 40 C 18.238281 40 16 42.691406 16 46 C 16 49.308594 18.238281 52 21 52 C 22.851562 52 24.460938 50.789062 25.328125 49 L 20 49 L 20 45 L 30.949219 45 C 30.980469 45.328125 31 45.660156 31 46 C 31 51.515625 26.515625 56 21 56 Z M 21 56 "/>
</g>
</svg>
